<svg width="28" height="32" viewBox="0 0 28 32" fill="none" xmlns="http://www.w3.org/2000/svg">
<path fill-rule="evenodd" clip-rule="evenodd" d="M13.5648 31.8619C13.742 31.9544 13.9401 32.0015 14.1383 31.9999C14.3364 31.9984 14.5329 31.9497 14.7117 31.8556L20.4203 28.8039C22.0391 27.941 23.3068 26.9761 24.2958 25.8527C26.4462 23.4051 27.6205 20.2813 27.5996 17.0602L27.5319 6.43517C27.5255 5.21138 26.7217 4.11938 25.5329 3.72243L14.913 0.159303C14.2736 -0.0572149 13.5729 -0.052508 12.9447 0.170286L2.3651 3.8605C1.18278 4.27314 0.393498 5.37298 0.399942 6.59834L0.467594 17.2155C0.488534 20.4413 1.70306 23.551 3.88889 25.9735C4.88758 27.0812 6.16654 28.032 7.80309 28.8808L13.5648 31.8619ZM12.0536 19.3743C12.292 19.6034 12.6013 19.7163 12.9105 19.7132C13.2198 19.7116 13.5275 19.5955 13.7626 19.3633L20.0012 13.213C20.4699 12.7501 20.4651 12.0064 19.9915 11.5498C19.5163 11.0933 18.7512 11.0964 18.2825 11.5593L12.8928 16.8718L10.686 14.7505C10.2109 14.294 9.44739 14.2987 8.97704 14.7615C8.50831 15.2244 8.51314 15.9681 8.98832 16.4246L12.0536 19.3743Z" fill="#F58634"/>
</svg>
