<svg width="33" height="32" viewBox="0 0 33 32" fill="none" xmlns="http://www.w3.org/2000/svg">
<path d="M25.4697 19.7123C25.0553 20.1139 24.8649 20.6947 24.9593 21.2643L26.3817 29.1363C26.5017 29.8035 26.2201 30.4787 25.6617 30.8643C25.1145 31.2643 24.3865 31.3123 23.7897 30.9923L16.7033 27.2963C16.4569 27.1651 16.1833 27.0947 15.9033 27.0867H15.4697C15.3193 27.1091 15.1721 27.1571 15.0377 27.2307L7.94971 30.9443C7.59931 31.1203 7.20251 31.1827 6.81371 31.1203C5.86651 30.9411 5.23451 30.0387 5.38971 29.0867L6.81371 21.2147C6.90811 20.6403 6.71771 20.0563 6.30331 19.6483L0.525713 14.0483C0.042513 13.5795 -0.125487 12.8755 0.095313 12.2403C0.309713 11.6067 0.856913 11.1443 1.51771 11.0403L9.46971 9.88669C10.0745 9.82429 10.6057 9.45629 10.8777 8.91229L14.3817 1.72829C14.4649 1.56829 14.5721 1.42109 14.7017 1.29629L14.8457 1.18429C14.9209 1.10109 15.0073 1.03229 15.1033 0.976293L15.2777 0.912293L15.5497 0.800293H16.2233C16.8249 0.862693 17.3545 1.22269 17.6313 1.76029L21.1817 8.91229C21.4377 9.43549 21.9353 9.79869 22.5097 9.88669L30.4617 11.0403C31.1337 11.1363 31.6953 11.6003 31.9177 12.2403C32.1273 12.8819 31.9465 13.5859 31.4537 14.0483L25.4697 19.7123Z" fill="#F58634"/>
</svg>
